<svg xmlns="http://www.w3.org/2000/svg" width="17.5" height="20" viewBox="0 0 17.5 20"><defs><style>.a{fill:#fff;}</style></defs><path class="a" d="M8.745,18.75A1.252,1.252,0,0,1,7.5,17.5H6.245a2.5,2.5,0,1,0,5,0H10A1.252,1.252,0,0,1,8.745,18.75Zm8.179-5.671C15.832,12.039,15,10.95,15,7.262A6.1,6.1,0,0,0,9.37,1.311V.625a.625.625,0,0,0-1.25,0v.686A6.094,6.094,0,0,0,2.494,7.262c0,3.688-.836,4.777-1.928,5.817a1.818,1.818,0,0,0-.439,2A1.864,1.864,0,0,0,1.87,16.25H15.62a1.864,1.864,0,0,0,1.744-1.171A1.818,1.818,0,0,0,16.924,13.079ZM15.62,15H1.87a.593.593,0,0,1-.442-1.016c1.362-1.3,2.316-2.748,2.316-6.722a4.884,4.884,0,0,1,5-4.762,4.884,4.884,0,0,1,5,4.762c0,3.959.946,5.418,2.316,6.722A.593.593,0,0,1,15.62,15Z" transform="translate(0.005)"/></svg>