<svg xmlns="http://www.w3.org/2000/svg" width="19.633" height="17.177" viewBox="0 0 19.633 17.177"><defs><style>.a{fill:#fff;}</style></defs><path class="a" d="M9.752,33.227c4.735,0,8.588,3.029,8.588,6.748s-3.853,6.748-8.588,6.748a10.575,10.575,0,0,1-3.19-.491l-.583-.184-.5.353a8.273,8.273,0,0,1-3.934,1.518,10.343,10.343,0,0,0,1.564-2.669l.272-.717-.525-.56a5.8,5.8,0,0,1-1.695-4c0-3.719,3.853-6.748,8.588-6.748m0-1.227C4.33,32-.064,35.57-.064,39.975a7.048,7.048,0,0,0,2.028,4.843A9.73,9.73,0,0,1,.185,47.624a.92.92,0,0,0,.667,1.553A9.3,9.3,0,0,0,6.186,47.4a11.886,11.886,0,0,0,3.566.548c5.421,0,9.815-3.57,9.815-7.975S15.173,32,9.752,32Z" transform="translate(0.066 -32)"/></svg>