<svg xmlns="http://www.w3.org/2000/svg" width="192" height="61" viewBox="0 0 192 61"><defs><style>.a{fill:#9fb1bb;}.b,.c,.d{fill:#fff;}.b{font-size:18px;font-family:OpenSans-Bold, Open Sans;font-weight:700;}.c{font-size:12px;font-family:OpenSans-Semibold, Open Sans;font-weight:600;}</style></defs><g transform="translate(-1094 -918)"><rect class="a" width="192" height="61" rx="5" transform="translate(1094 918)"/><text class="b" transform="translate(1202 962)"><tspan x="-60.333" y="0">DESKTOP APP</tspan></text><text class="c" transform="translate(1162 943)"><tspan x="-20.083" y="0">Try the</tspan></text><path class="d" d="M16.526,18h-5.8l3.053,7.437a1.016,1.016,0,0,1-.516,1.312l-2.689,1.172A.967.967,0,0,1,9.3,27.389L6.4,20.327,1.656,25.2A.968.968,0,0,1,0,24.5V1A.968.968,0,0,1,1.656.3l15.554,16a1,1,0,0,1-.684,1.7Z" transform="translate(1112 934.6)"/></g></svg>