<svg xmlns="http://www.w3.org/2000/svg" width="30.001" height="30" viewBox="0 0 30.001 30"><defs><style>.a{fill:#9fb1bb;}.b{fill:#fff;}</style></defs><g transform="translate(-16.832 -17.416)"><g transform="translate(16.832 17.416)"><g transform="translate(0 0)"><path class="a" d="M44.612,17.416H19.046a2.19,2.19,0,0,0-2.214,2.162V45.252a2.191,2.191,0,0,0,2.214,2.164H44.612a2.2,2.2,0,0,0,2.221-2.164V19.578A2.194,2.194,0,0,0,44.612,17.416Z" transform="translate(-16.832 -17.416)"/><path class="b" d="M42.118,49.617h4.549v14.19H42.118Zm2.276-7.053a2.558,2.558,0,1,1-2.638,2.556,2.6,2.6,0,0,1,2.638-2.556" transform="translate(-37.572 -38.342)"/><path class="b" d="M88,84.093h4.363v2h.061a4.779,4.779,0,0,1,4.3-2.364c4.606,0,5.456,3.031,5.456,6.972v8.027H97.641V91.611c0-1.7-.031-3.88-2.364-3.88-2.367,0-2.73,1.849-2.73,3.758v7.24H88Z" transform="translate(-76.721 -73.263)"/></g></g></g></svg>