<svg xmlns="http://www.w3.org/2000/svg" width="34" height="34" viewBox="0 0 34 34"><defs><style>.a{fill:#f0665c;}.b{fill:#fff;}</style></defs><g transform="translate(-568 -1494)"><circle class="a" cx="17" cy="17" r="17" transform="translate(568 1494)"/><path class="b" d="M1.012,69a1,1,0,1,0,0,2,1,1,0,1,0,0-2Zm0-5a1,1,0,1,0,0,2,1,1,0,1,0,0-2Zm0,10a1,1,0,1,0,0,2,1,1,0,1,0,0-2ZM15.75,64.5H4.25a.25.25,0,0,0-.25.25v.5a.25.25,0,0,0,.25.25h11.5a.25.25,0,0,0,.25-.25v-.5A.25.25,0,0,0,15.75,64.5Zm0,5H4.25a.25.25,0,0,0-.25.25v.5a.25.25,0,0,0,.25.25h11.5a.25.25,0,0,0,.25-.25v-.5A.25.25,0,0,0,15.75,69.5Zm0,5H4.25a.25.25,0,0,0-.25.25v.5a.25.25,0,0,0,.25.25h11.5a.25.25,0,0,0,.25-.25v-.5A.25.25,0,0,0,15.75,74.5Z" transform="translate(577 1441)"/></g></svg>