<svg xmlns="http://www.w3.org/2000/svg" width="34" height="34" viewBox="0 0 34 34"><defs><style>.a{fill:#f0665c;}.b{fill:#fff;}</style></defs><g transform="translate(-1044 -1336)"><circle class="a" cx="17" cy="17" r="17" transform="translate(1044 1336)"/><path class="b" d="M13,3.345,10.053.4A1.687,1.687,0,0,0,8.861-.1H1.687A1.693,1.693,0,0,0,0,1.591V16.213A1.688,1.688,0,0,0,1.687,17.9H11.81A1.688,1.688,0,0,0,13.5,16.213V4.54a1.7,1.7,0,0,0-.5-1.2Zm-.794.8a.553.553,0,0,1,.148.26H9V1.046a.553.553,0,0,1,.26.148Zm-.4,12.633H1.687a.564.564,0,0,1-.562-.562V1.591a.564.564,0,0,1,.562-.562H7.873V4.684a.842.842,0,0,0,.844.844h3.656V16.213A.564.564,0,0,1,11.81,16.775Z" transform="translate(1054 1344.1)"/></g></svg>