<svg xmlns="http://www.w3.org/2000/svg" width="16" height="12" viewBox="0 0 16 12"><defs><style>.a{fill:#fff;}</style></defs><path class="a" d="M1.012,69a1,1,0,1,0,0,2,1,1,0,1,0,0-2Zm0-5a1,1,0,1,0,0,2,1,1,0,1,0,0-2Zm0,10a1,1,0,1,0,0,2,1,1,0,1,0,0-2ZM15.75,64.5H4.25a.25.25,0,0,0-.25.25v.5a.25.25,0,0,0,.25.25h11.5a.25.25,0,0,0,.25-.25v-.5A.25.25,0,0,0,15.75,64.5Zm0,5H4.25a.25.25,0,0,0-.25.25v.5a.25.25,0,0,0,.25.25h11.5a.25.25,0,0,0,.25-.25v-.5A.25.25,0,0,0,15.75,69.5Zm0,5H4.25a.25.25,0,0,0-.25.25v.5a.25.25,0,0,0,.25.25h11.5a.25.25,0,0,0,.25-.25v-.5A.25.25,0,0,0,15.75,74.5Z" transform="translate(0 -64)"/></svg>