<svg xmlns="http://www.w3.org/2000/svg" width="30.005" height="30" viewBox="0 0 30.005 30"><defs><style>.a{fill:#8da3ad;}</style></defs><path class="a" d="M63.375,36h-24.8a2.605,2.605,0,0,0-2.6,2.6V63.4a2.6,2.6,0,0,0,2.6,2.6h24.8a2.6,2.6,0,0,0,2.6-2.6V38.6A2.605,2.605,0,0,0,63.375,36Zm-.9,10.7-.312,4.068H57.995V64.906H52.724V50.771H49.912V46.7h2.813V43.969c0-1.2.031-3.062.906-4.213a5,5,0,0,1,4.365-2.047,17.719,17.719,0,0,1,5.042.5l-.7,4.167a9.5,9.5,0,0,0-2.266-.339c-1.094,0-2.073.391-2.073,1.484V46.7Z" transform="translate(-35.974 -36)"/></svg>