<svg xmlns="http://www.w3.org/2000/svg" width="22.5" height="18" viewBox="0 0 22.5 18"><defs><style>.a{fill:#fff;}</style></defs><path class="a" d="M21.375,4.5h-6.75A1.125,1.125,0,0,0,13.5,5.625v11.25A1.125,1.125,0,0,0,14.625,18h6.75A1.125,1.125,0,0,0,22.5,16.875V5.625A1.125,1.125,0,0,0,21.375,4.5Zm0,12.375h-6.75V5.625h6.75Zm-18-15.75h13.5v2.25H18V1.125A1.125,1.125,0,0,0,16.875,0H3.375A1.125,1.125,0,0,0,2.25,1.125v9H.563A.563.563,0,0,0,0,10.688v.563A2.255,2.255,0,0,0,2.247,13.5H12.375V12.375H2.247A1.125,1.125,0,0,1,1.125,11.25h11.25V10.125h-9Z"/></svg>